<?xml version="1.0" standalone="no"?><!DOCTYPE svg PUBLIC "-//W3C//DTD SVG 1.1//EN" "http://www.w3.org/Graphics/SVG/1.1/DTD/svg11.dtd"><svg t="1668597770770" class="icon" viewBox="0 0 1024 1024" version="1.1" xmlns="http://www.w3.org/2000/svg" p-id="2603" xmlns:xlink="http://www.w3.org/1999/xlink" width="200" height="200"><path d="M486.4 507.0848V230.4a25.6 25.6 0 0 1 51.2 0v263.8336l151.04 54.9888a25.6 25.6 0 1 1-17.4592 48.128l-168.448-61.2864a25.6 25.6 0 0 1-16.3328-28.9792z m314.7264 330.24A433.5616 433.5616 0 0 1 512 947.2a433.4592 433.4592 0 0 1-282.4704-104.0896l-134.2464 134.2464a25.6 25.6 0 0 1-36.1984-36.1984l133.5296-133.5296a435.2 435.2 0 1 1 644.7104-6.5024l140.032 140.032a25.6 25.6 0 0 1-36.1984 36.1984l-140.032-140.032zM977.7152 243.2a25.6 25.6 0 1 1-44.3392 25.6 488.6528 488.6528 0 0 0-209.2032-194.6624 25.6 25.6 0 1 1 22.3744-46.08 539.8528 539.8528 0 0 1 231.168 215.1424zM276.9408 28.3648a25.6 25.6 0 1 1 22.4256 46.08A488.6528 488.6528 0 0 0 90.624 268.8512a25.6 25.6 0 0 1-44.3392-25.6A539.8528 539.8528 0 0 1 276.9408 28.3136zM512 896a384 384 0 1 0 0-768 384 384 0 0 0 0 768z" fill="#000000" p-id="2604"></path></svg>