<?xml version="1.0" standalone="no"?><!DOCTYPE svg PUBLIC "-//W3C//DTD SVG 1.1//EN" "http://www.w3.org/Graphics/SVG/1.1/DTD/svg11.dtd"><svg t="1669030330617" class="icon" viewBox="0 0 1024 1024" version="1.1" xmlns="http://www.w3.org/2000/svg" p-id="6774" xmlns:xlink="http://www.w3.org/1999/xlink" width="200" height="200"><path d="M390.784 128l-0.064 44.416h234.176V128h64v44.416h198.08V832H128V172.416h198.72V128h64zM326.72 235.584l-135.488 0.064v533.12h632.512v-533.12l-134.848-0.064v59.904h-64v-59.904H390.72v59.904h-64v-59.904z m202.432 216.96v254.4h53.888v32.384H426.88v-32.384h59.648V527.68l0.192-9.664 0.448-9.856-45.952 38.784-3.008 1.92-3.072 1.152a13.056 13.056 0 0 1-5.76 0.128 15.296 15.296 0 0 1-4.736-1.92 11.776 11.776 0 0 1-3.264-2.88l-13.376-18.688 86.272-74.112h34.816z m226.816-106.24v64H259.008v-64h496.96z" p-id="6775"></path></svg>