<?xml version="1.0" standalone="no"?><!DOCTYPE svg PUBLIC "-//W3C//DTD SVG 1.1//EN" "http://www.w3.org/Graphics/SVG/1.1/DTD/svg11.dtd"><svg t="1669029503101" class="icon" viewBox="0 0 1024 1024" version="1.1" xmlns="http://www.w3.org/2000/svg" p-id="3519" xmlns:xlink="http://www.w3.org/1999/xlink" width="200" height="200"><path d="M863.418182 297.890909l-132.654546-132.654545 109.381819-109.381819 132.654545 132.654546-109.381818 109.381818z m-65.163637-132.654545l65.163637 65.163636 41.890909-41.890909-65.163636-65.163636-41.89091 41.890909z" fill="#424752" p-id="3520"></path><path d="M523.636364 505.018182l39.563636-172.218182 202.472727-202.472727 130.327273 132.654545-202.472727 202.472727-169.890909 39.563637z m158.254545-60.509091zM605.090909 358.4l-20.945454 83.781818 86.10909-20.945454 160.581819-158.254546-65.163637-67.490909-160.581818 162.909091z" fill="#424752" p-id="3521"></path><path d="M930.909091 930.909091H93.090909V93.090909h581.818182v46.545455H139.636364v744.727272h744.727272V349.090909h46.545455z" fill="#424752" p-id="3522"></path><path d="M186.181818 279.272727h302.545455v46.545455H186.181818zM186.181818 418.909091h302.545455v46.545454H186.181818zM186.181818 558.545455h651.636364v46.545454H186.181818z" fill="#424752" p-id="3523"></path><path d="M186.181818 698.181818h651.636364v46.545455H186.181818z" fill="#424752" p-id="3524"></path></svg>