<?xml version="1.0" standalone="no"?><!DOCTYPE svg PUBLIC "-//W3C//DTD SVG 1.1//EN" "http://www.w3.org/Graphics/SVG/1.1/DTD/svg11.dtd"><svg t="1668944249321" class="icon" viewBox="0 0 1024 1024" version="1.1" xmlns="http://www.w3.org/2000/svg" p-id="4541" xmlns:xlink="http://www.w3.org/1999/xlink" width="200" height="200"><path d="M616.2 887.4H385.5c-20.5 0-37.3 16.8-37.3 37.3S365 962 385.5 962h230.7c20.5 0 37.3-16.8 37.3-37.3s-16.7-37.3-37.3-37.3zM895 794.1h-23.9V511c0-198.8-141.6-361.5-315.3-363.5v-45.8c0-21.4-17.5-39-39-39-21.4 0-39 17.5-39 39v45.6h-1.7C300.9 147.3 157.5 311 157.5 511v283.2h-23.9c-12.9 0-23.4 10.5-23.4 23.4 0 12.9 10.5 23.4 23.4 23.4H895c12.9 0 23.4-10.5 23.4-23.4 0-13-10.5-23.5-23.4-23.5zM730.8 441c0-58.5-16.3-101.7-48.4-128.6-54.7-45.7-138-31.2-138.9-31.1l-7.1-39.2c4.1-0.8 102.7-17.8 171.5 39.7 41.6 34.8 62.7 88.3 62.7 159.2h-39.8z" fill="#ED7C6C" p-id="4542"></path></svg>